<?xml version="1.0" standalone="no"?>
<!DOCTYPE svg PUBLIC "-//W3C//DTD SVG 20010904//EN"
 "http://www.w3.org/TR/2001/REC-SVG-20010904/DTD/svg10.dtd">
<svg version="1.0" xmlns="http://www.w3.org/2000/svg"
 width="400.000000pt" height="400.000000pt" viewBox="0 0 400.000000 400.000000"
 preserveAspectRatio="xMidYMid meet">
<metadata>
Created by potrace 1.11, written by Peter Selinger 2001-2013
</metadata>
<g transform="translate(0.000000,400.000000) scale(0.100000,-0.100000)"
fill="#000000" stroke="none">
<path d="M2160 3984 c-152 -16 -214 -23 -280 -34 -30 -5 -73 -12 -95 -15 -23
-3 -52 -8 -65 -10 -14 -3 -41 -8 -60 -11 -19 -3 -66 -12 -105 -19 -38 -8 -81
-16 -95 -19 -315 -58 -673 -173 -861 -277 -40 -21 -75 -39 -80 -39 -4 0 -9 -3
-11 -7 -2 -5 -29 -25 -60 -47 -76 -51 -186 -157 -240 -231 -104 -145 -167
-321 -198 -555 -8 -60 -5 -496 4 -565 2 -16 7 -52 10 -80 4 -27 9 -68 11 -90
7 -51 16 -114 21 -140 3 -11 7 -39 10 -61 2 -23 7 -53 10 -65 2 -13 7 -40 10
-59 32 -208 117 -558 181 -745 178 -524 435 -785 868 -881 11 -3 63 -11 115
-18 110 -16 508 -14 635 3 44 6 103 13 130 17 28 3 64 7 80 10 17 3 41 7 55 9
68 10 117 18 135 21 11 3 36 7 55 10 19 3 69 12 110 21 41 8 84 16 95 18 11 1
40 7 65 13 25 6 57 13 71 15 14 3 86 21 160 40 367 97 643 227 820 386 98 88
199 235 250 363 l19 48 -30 0 c-48 0 -135 38 -182 79 -130 115 -136 312 -14
437 67 68 177 102 265 83 l33 -7 -7 116 c-4 64 -8 128 -10 142 -1 14 -6 57
-10 95 -4 39 -8 77 -10 85 -1 8 -6 40 -10 70 -5 30 -9 62 -11 70 -1 8 -5 38
-8 65 -4 28 -9 57 -11 65 -2 8 -7 31 -10 50 -3 19 -17 91 -30 160 -14 69 -27
134 -29 145 -2 11 -9 40 -16 65 -7 25 -14 56 -17 70 -2 14 -9 43 -15 65 -6 22
-12 45 -14 50 -7 36 -53 176 -86 265 -146 389 -347 626 -630 742 -174 70 -339
96 -613 95 -104 0 -242 -6 -305 -13z m-995 -1238 c66 -30 131 -98 153 -159 9
-26 20 -46 23 -45 4 2 26 27 49 56 63 80 173 145 287 169 47 10 185 6 232 -7
129 -35 251 -131 320 -253 l33 -58 20 38 c94 177 246 278 430 286 287 14 505
-177 544 -478 3 -22 5 -252 6 -512 l0 -472 -26 -58 c-33 -71 -75 -116 -141
-151 -43 -23 -62 -27 -135 -27 -73 0 -92 4 -136 27 -81 43 -146 130 -160 215
-3 21 -7 205 -7 408 -2 361 -3 371 -24 411 -69 130 -241 115 -307 -26 -19 -43
-21 -63 -22 -376 -2 -278 -5 -340 -19 -380 -40 -119 -137 -193 -261 -202 -103
-7 -163 16 -234 87 -89 89 -91 103 -93 506 -1 325 -1 339 -23 384 -48 105
-184 129 -264 46 -60 -62 -66 -99 -68 -417 -1 -262 -3 -289 -22 -340 -59 -158
-250 -237 -400 -165 -67 32 -77 40 -122 99 -58 76 -60 94 -60 650 0 435 2 510
16 557 53 177 244 264 411 187z"/>
</g>
</svg>
